<svg xmlns="http://www.w3.org/2000/svg" width="396" height="330" viewBox="0 0 396 330" role="img" aria-label="mikser">
  <title>mikser</title>
  <g transform="translate(98 20)" style="isolation:isolate">
    <g style="mix-blend-mode:multiply">
      <circle cx="100" cy="72" r="46" fill="#0A0907"></circle>
      <circle cx="124.249" cy="114" r="46" fill="#0A0907" opacity="0.85"></circle>
      <circle cx="75.751" cy="114" r="46" fill="#FF3F00"></circle>
    </g>
  </g>
  <g transform="translate(13 310.32)">
    <path d="M75.46-55.77L75.46-55.77Q82.83-55.77 86.68-51.92Q90.53-48.07 90.53-40.70L90.53-40.70L90.53 0L74.47 0L74.47-35.64Q74.36-39.05 73.04-40.54Q71.72-42.02 68.42-42.02L68.42-42.02Q66.55-42.02 64.73-41.52Q62.92-41.03 60.61-39.82L60.61-39.82Q58.85-38.83 56.43-37.40L56.43-37.40L56.43 0L40.81 0L40.81-35.64Q40.81-39.16 39.33-40.59Q37.84-42.02 34.76-42.02L34.76-42.02Q32.89-42.02 31.07-41.52Q29.26-41.03 26.95-39.82L26.95-39.82Q25.19-38.94 22.88-37.62L22.88-37.62L22.88 0L6.71 0L6.71-54.34L19.58-54.34L20.79-46.09Q25.85-50.82 30.58-53.24L30.58-53.24Q35.64-55.77 41.58-55.77L41.58-55.77Q48.84-55.77 52.69-52.03L52.69-52.03Q54.67-49.94 55.66-46.86L55.66-46.86Q60.17-50.93 64.57-53.24L64.57-53.24Q69.63-55.77 75.46-55.77ZM101.86-54.34L117.92-54.34L117.92 0L101.86 0L101.86-54.34ZM106.37-78.32L113.41-78.32Q118.25-78.32 118.25-73.48L118.25-73.48L118.25-67.54Q118.25-62.70 113.41-62.70L113.41-62.70L106.37-62.70Q101.53-62.70 101.53-67.54L101.53-67.54L101.53-73.48Q101.53-78.32 106.37-78.32L106.37-78.32ZM163.90-54.34L182.05-54.34L167.86-35.42Q166.87-33.88 165.33-32.45Q163.79-31.02 162.80-30.36L162.80-30.36L162.80-30.03Q163.79-29.37 165.33-27.66Q166.87-25.96 167.86-24.20L167.86-24.20L183.92 0L165.77 0L150.37-25.30L145.09-25.30Q145.20-24.53 145.31-23.65L145.31-23.65Q145.75-20.02 145.75-17.05L145.75-17.05L145.75 0L129.58 0L129.58-77L145.75-77L145.86-45.21Q145.86-41.36 145.42-37.73L145.42-37.73Q145.31-36.41 145.09-35.20L145.09-35.20L150.48-35.20L163.90-54.34ZM209.44-55.77L209.44-55.77Q213.40-55.77 218.02-55.49Q222.64-55.22 227.04-54.78Q231.44-54.34 234.85-53.68L234.85-53.68L233.75-43.56Q228.47-43.67 223.14-43.78Q217.80-43.89 212.74-43.89L212.74-43.89Q208.45-43.89 206.14-43.73Q203.83-43.56 202.90-42.73Q201.96-41.91 201.96-39.82L201.96-39.82Q201.96-37.29 203.61-36.47Q205.26-35.64 209.11-34.65L209.11-34.65L223.30-31.24Q230.12-29.48 233.42-26.02Q236.72-22.55 236.72-15.62L236.72-15.62Q236.72-8.80 234.19-5.17Q231.66-1.54 226.16-0.17Q220.66 1.21 211.97 1.21L211.97 1.21Q208.56 1.21 201.85 0.88Q195.14 0.55 187.22-0.77L187.22-0.77L188.21-10.89Q190.30-10.78 193.33-10.72Q196.35-10.67 199.98-10.67L199.98-10.67L207.24-10.67Q212.96-10.67 215.93-10.95Q218.90-11.22 220.00-12.21Q221.10-13.20 221.10-15.18L221.10-15.18Q221.10-17.71 219.23-18.54Q217.36-19.36 213.29-20.46L213.29-20.46L199.54-23.87Q194.26-25.30 191.40-27.50Q188.54-29.70 187.39-32.84Q186.23-35.97 186.23-40.37L186.23-40.37Q186.23-45.98 188.54-49.39Q190.85-52.80 195.91-54.29Q200.97-55.77 209.44-55.77ZM270.71-55.77L270.71-55.77Q284.46-55.77 290.46-51.09Q296.45-46.42 296.45-37.18L296.45-37.18Q296.56-29.81 292.71-26.07Q288.86-22.33 279.40-22.33L279.40-22.33L260.04-22.33Q260.37-19.80 260.92-18.15L260.92-18.15Q262.13-14.41 265.05-12.98Q267.96-11.55 273.13-11.55L273.13-11.55Q276.87-11.55 282.43-11.82Q287.98-12.10 293.59-12.76L293.59-12.76L295.13-2.75Q291.94-1.21 287.87-0.33Q283.80 0.55 279.51 0.94Q275.22 1.32 271.26 1.32L271.26 1.32Q260.92 1.32 254.65-1.71Q248.38-4.73 245.58-11Q242.77-17.27 242.77-27.06L242.77-27.06Q242.77-37.73 245.58-44Q248.38-50.27 254.54-53.02Q260.70-55.77 270.71-55.77ZM259.71-31.46L259.71-31.46L275.00-31.46Q278.63-31.46 279.68-33.05Q280.72-34.65 280.72-37.51L280.72-37.51Q280.72-41.36 278.58-42.84Q276.43-44.33 271.26-44.33L271.26-44.33Q266.75-44.44 264.22-43.17Q261.69-41.91 260.70-38.50L260.70-38.50Q259.93-35.86 259.71-31.46ZM304.92-54.34L317.57-54.34L319.11-46.09Q324.39-50.71 329.89-53.13L329.89-53.13Q335.72-55.77 341.22-55.77L341.22-55.77L344.08-55.77L342.54-40.81L338.03-40.81Q334.18-40.81 330.00-39.71L330.00-39.71Q326.37-38.72 321.09-36.85L321.09-36.85L321.09 0L304.92 0L304.92-54.34Z" fill="#0A0907"></path>
    <path d="M354.31-16.72L358.49-16.72Q361.68-16.72 362.94-15.46Q364.21-14.19 364.21-11L364.21-11L364.21-5.72Q364.21-2.53 362.94-1.26Q361.68 0 358.49 0L358.49 0L354.31 0Q351.12 0 349.86-1.26Q348.59-2.53 348.59-5.72L348.59-5.72L348.59-11Q348.59-14.19 349.86-15.46Q351.12-16.72 354.31-16.72L354.31-16.72Z" fill="#FF3F00"></path>
  </g>
</svg>